REM DIRINDEX 1\2\6,1\2\7,1\2\8,1\3\9,1\3\10,1\3\11,1\4\12,1\4\13,1\4\14,1\5\15,1\5\16,1\5\17,1\5\18
REM DIRNAME folder01,folder02,folder03,folder04,folder05,folder06,folder07,folder08,folder09,folder10,folder11,folder12,folder13,folder14,folder15,folder16,folder17,folder18
TITLE ""
FILE "2Q_t_0773-0790.mp3" MP3
  TRACK 01 AUDIO
    TITLE "13:cjc019_3606"
    INDEX 01 00:00:00
  TRACK 02 AUDIO
    TITLE "0:"
    INDEX 01 00:01:11
  TRACK 03 AUDIO
    TITLE "14:cjc019_3607"
    INDEX 01 00:01:64
  TRACK 04 AUDIO
    TITLE "0:"
    INDEX 01 00:05:46
  TRACK 05 AUDIO
    TITLE "13:cjc019_3608"
    INDEX 01 00:06:22
  TRACK 06 AUDIO
    TITLE "0:"
    INDEX 01 00:07:31
  TRACK 07 AUDIO
    TITLE "14:cjc019_3609"
    INDEX 01 00:08:13
  TRACK 08 AUDIO
    TITLE "0:"
    INDEX 01 00:11:62
  TRACK 09 AUDIO
    TITLE "13:cjc019_3610"
    INDEX 01 00:12:44
  TRACK 10 AUDIO
    TITLE "0:"
    INDEX 01 00:14:23
  TRACK 11 AUDIO
    TITLE "14:cjc019_3611"
    INDEX 01 00:15:07
  TRACK 12 AUDIO
    TITLE "0:"
    INDEX 01 00:17:65
  TRACK 13 AUDIO
    TITLE "13:cjc019_3612"
    INDEX 01 00:18:42
  TRACK 14 AUDIO
    TITLE "0:"
    INDEX 01 00:20:04
  TRACK 15 AUDIO
    TITLE "14:cjc019_3613"
    INDEX 01 00:20:55
  TRACK 16 AUDIO
    TITLE "0:"
    INDEX 01 00:24:16
  TRACK 17 AUDIO
    TITLE "13:cjc019_3614"
    INDEX 01 00:24:74
  TRACK 18 AUDIO
    TITLE "0:"
    INDEX 01 00:26:13
  TRACK 19 AUDIO
    TITLE "14:cjc019_3615"
    INDEX 01 00:27:00
  TRACK 20 AUDIO
    TITLE "0:"
    INDEX 01 00:29:62
  TRACK 21 AUDIO
    TITLE "13:cjc019_3616"
    INDEX 01 00:30:46
  TRACK 22 AUDIO
    TITLE "0:"
    INDEX 01 00:31:67
  TRACK 23 AUDIO
    TITLE "14:cjc019_3617"
    INDEX 01 00:32:50
  TRACK 24 AUDIO
    TITLE "0:"
    INDEX 01 00:34:49
  TRACK 25 AUDIO
    TITLE "13:cjc019_3618"
    INDEX 01 00:35:29
  TRACK 26 AUDIO
    TITLE "0:"
    INDEX 01 00:36:50
  TRACK 27 AUDIO
    TITLE "14:cjc019_3619"
    INDEX 01 00:37:34
  TRACK 28 AUDIO
    TITLE "0:"
    INDEX 01 00:39:43
  TRACK 29 AUDIO
    TITLE "13:cjc019_3620"
    INDEX 01 00:40:23
  TRACK 30 AUDIO
    TITLE "0:"
    INDEX 01 00:41:61
  TRACK 31 AUDIO
    TITLE "14:cjc019_3621"
    INDEX 01 00:42:45
  TRACK 32 AUDIO
    TITLE "0:"
    INDEX 01 00:45:14
  TRACK 33 AUDIO
    TITLE "13:cjc019_3622"
    INDEX 01 00:45:69
  TRACK 34 AUDIO
    TITLE "0:"
    INDEX 01 00:47:28
  TRACK 35 AUDIO
    TITLE "14:cjc019_3623"
    INDEX 01 00:48:00
  TRACK 36 AUDIO
    TITLE "0:"
    INDEX 01 00:49:25
  TRACK 37 AUDIO
    TITLE "13:cjc019_3624"
    INDEX 01 00:50:11
  TRACK 38 AUDIO
    TITLE "0:"
    INDEX 01 00:51:58
  TRACK 39 AUDIO
    TITLE "14:cjc019_3625"
    INDEX 01 00:52:41
  TRACK 40 AUDIO
    TITLE "0:"
    INDEX 01 00:55:16
  TRACK 41 AUDIO
    TITLE "13:cjc019_3626"
    INDEX 01 00:55:73
  TRACK 42 AUDIO
    TITLE "0:"
    INDEX 01 00:57:35
  TRACK 43 AUDIO
    TITLE "14:cjc019_3627"
    INDEX 01 00:58:22
  TRACK 44 AUDIO
    TITLE "0:"
    INDEX 01 01:02:16
  TRACK 45 AUDIO
    TITLE "13:cjc019_3628"
    INDEX 01 01:02:65
  TRACK 46 AUDIO
    TITLE "0:"
    INDEX 01 01:04:25
  TRACK 47 AUDIO
    TITLE "14:cjc019_3629"
    INDEX 01 01:04:74
  TRACK 48 AUDIO
    TITLE "0:"
    INDEX 01 01:06:28
  TRACK 49 AUDIO
    TITLE "13:cjc019_3630"
    INDEX 01 01:07:02
  TRACK 50 AUDIO
    TITLE "0:"
    INDEX 01 01:08:38
  TRACK 51 AUDIO
    TITLE "14:cjc019_3631"
    INDEX 01 01:09:26
  TRACK 52 AUDIO
    TITLE "0:"
    INDEX 01 01:11:47
  TRACK 53 AUDIO
    TITLE "13:cjc019_3632"
    INDEX 01 01:12:32
  TRACK 54 AUDIO
    TITLE "0:"
    INDEX 01 01:13:49
  TRACK 55 AUDIO
    TITLE "14:cjc019_3633"
    INDEX 01 01:14:31
  TRACK 56 AUDIO
    TITLE "0:"
    INDEX 01 01:17:59
  TRACK 57 AUDIO
    TITLE "13:cjc019_3634"
    INDEX 01 01:18:35
  TRACK 58 AUDIO
    TITLE "0:"
    INDEX 01 01:19:70
  TRACK 59 AUDIO
    TITLE "14:cjc019_3635"
    INDEX 01 01:20:49
  TRACK 60 AUDIO
    TITLE "0:"
    INDEX 01 01:21:61
  TRACK 61 AUDIO
    TITLE "13:cjc019_3636"
    INDEX 01 01:22:37
  TRACK 62 AUDIO
    TITLE "0:"
    INDEX 01 01:23:73
  TRACK 63 AUDIO
    TITLE "14:cjc019_3637"
    INDEX 01 01:24:57
  TRACK 64 AUDIO
    TITLE "0:"
    INDEX 01 01:27:44
  TRACK 65 AUDIO
    TITLE "13:cjc019_3638"
    INDEX 01 01:28:24
  TRACK 66 AUDIO
    TITLE "0:"
    INDEX 01 01:29:58
  TRACK 67 AUDIO
    TITLE "14:cjc019_3639"
    INDEX 01 01:30:40
  TRACK 68 AUDIO
    TITLE "0:"
    INDEX 01 01:33:58
  TRACK 69 AUDIO
    TITLE "13:cjc019_3640"
    INDEX 01 01:34:40
  TRACK 70 AUDIO
    TITLE "0:"
    INDEX 01 01:35:59
  TRACK 71 AUDIO
    TITLE "14:cjc019_3641"
    INDEX 01 01:36:41
  TRACK 72 AUDIO
    TITLE "0:"
    INDEX 01 01:39:47
